<svg enable-background="new 0 0 612 792" height="200" viewBox="0 0 200.00001 200" width="200" xmlns="http://www.w3.org/2000/svg" xmlns:xlink="http://www.w3.org/1999/xlink"><linearGradient id="a" gradientUnits="userSpaceOnUse" x1="271.24701" x2="360.73734" y1="-703.73993" y2="-548.96295"><stop offset="0" stop-color="#699ad7"/><stop offset=".24345198" stop-color="#7eb1dd"/><stop offset="1" stop-color="#7ebae4"/></linearGradient><linearGradient id="b" gradientUnits="userSpaceOnUse" x1="280.49655" x2="368.39886" y1="-709.00488" y2="-553.62653"><stop offset="0" stop-color="#415e9a"/><stop offset=".23168644" stop-color="#4a6baf"/><stop offset="1" stop-color="#5277c3"/></linearGradient><linearGradient id="c" gradientUnits="userSpaceOnUse" x1="1197.3171" x2="1265.6218" y1="940.01331" y2="1117.3594"><stop offset="0" stop-color="#637ddf"/><stop offset=".23168644" stop-color="#649afa"/><stop offset="1" stop-color="#719efa"/></linearGradient><g fill-rule="evenodd" transform="matrix(.25534395 0 0 .25534395 -29.920142 249.40489)"><path d="m309.40365-710.2521 122.19683 211.6751-56.15706.5268-32.6236-56.8692-32.85645 56.5653-27.90237-.011-14.29086-24.6896 46.81047-80.4902-33.22946-57.8256z" fill="#5277c3"/><path d="m353.50926-797.4433-122.21756 211.6631-28.53477-48.37 32.93839-56.6875-65.41521-.1719-13.9414-24.1698 14.23637-24.721 93.11177.2939 33.46371-57.6903z" fill="#7ebae4"/><path d="m362.88537-628.243 244.41439.012-27.62229 48.8968-65.56199-.1817 32.55876 56.7371-13.96098 24.1585-28.52722.032-46.3013-80.7841-66.69317-.1353z" fill="#7ebae4"/><path d="m505.14318-720.9886-122.19683-211.6751 56.15706-.5268 32.6236 56.8692 32.85645-56.5653 27.90237.011 14.29086 24.6896-46.81047 80.4902 33.22946 57.8256z" fill="#7ebae4"/><g fill="#5277c3"><path d="m309.40365-710.2521 122.19683 211.6751-56.15706.5268-32.6236-56.8692-32.85645 56.5653-27.90237-.011-14.29086-24.6896 46.81047-80.4902-33.22946-57.8256z"/><path d="m451.3364-803.53264-244.4144-.012 27.62229-48.89685 65.56199.18175-32.55875-56.73717 13.96097-24.15851 28.52722-.0315 46.3013 80.78414 66.69317.13524z"/><path d="m460.87178-633.8425 122.21757-211.66304 28.53477 48.37003-32.93839 56.68751 65.4152.1718 13.9414 24.1698-14.23636 24.7211-93.11177-.294-33.46371 57.6904z"/></g></g><g display="none" transform="matrix(.25534395 0 0 .25534395 -11.52540948288 -210.07316800202)"><path d="m460.60629 594.72881-250.86446-.00001-125.432214-217.255 125.432234-217.25498 250.86446.00001 125.43222 217.255z" display="inline" fill="#4e4d52" opacity=".236"/><path d="m385.59154 773.06721h-100.83495l-50.41747-87.32564 50.41748-87.32563 100.83495.00001 50.41748 87.32563z" display="inline" fill="#4e4d52" transform="translate(0 -308.26772)"/><path d="m1216.5591 938.53395 123.0545 228.14035-42.6807-1.2616-43.4823-79.7725-39.6506 80.3267-32.6875-19.7984 53.4737-100.2848-37.1157-73.88955z" fill="url(#c)" fill-rule="evenodd" transform="translate(0 -308.26772)"/><path id="d" d="m-34.74221 446.17056h48.834862v226.22897h-48.834862z" display="inline" fill="#c53a3a" opacity=".415" transform="matrix(.8660254 -.5 .5 .8660254 0 0)"/><path d="m251.98568 878.63831-14.02447 24.29109h-28.04894l-14.02447-24.29109 14.02447-24.2911h28.04894z" display="inline" fill-rule="evenodd" opacity=".509" transform="translate(0 -308.26772)"/><use height="100%" transform="matrix(.5 .8660254 -.8660254 .5 558.026363 12.372987)" width="100%" xlink:href="#d"/><path d="m545.71014 467.07007h5.39475v115.12564h-5.39475z" display="inline" fill-opacity=".650794" fill-rule="evenodd" transform="matrix(.8660254 .5 -.5 .8660254 -.000001 -308.267717)"/></g><g transform="matrix(.25534395 0 0 .25534395 -29.920142 249.40489)"><path id="e" d="m309.54892-710.38827 122.19683 211.67512-56.15706.5268-32.6236-56.8692-32.85645 56.5653-27.90237-.011-14.29086-24.6896 46.81047-80.4901-33.22946-57.8257z" fill="url(#a)" fill-rule="evenodd"/><use height="100%" transform="matrix(.5 .8660254 -.8660254 .5 -416.334159 -710.462564)" width="100%" xlink:href="#e"/><use height="100%" transform="matrix(.5 -.8660254 .8660254 .5 823.470405 -5.10774)" width="100%" xlink:href="#e"/><use height="100%" transform="matrix(-1 0 0 -1 814.83736 -1431.513)" width="100%" xlink:href="#e"/><path id="f" d="m309.54892-710.38827 122.19683 211.67512-56.15706.5268-32.6236-56.8692-32.85645 56.5653-27.90237-.011-14.29086-24.6896 46.81047-80.4901-33.22946-57.8256z" fill="url(#b)" fill-rule="evenodd"/><use height="100%" transform="matrix(-.5 .8660254 -.8660254 -.5 -9.137814 -1426.891401)" width="100%" xlink:href="#f"/><use height="100%" transform="matrix(-.5 -.8660254 .8660254 -.5 1230.893908 -721.082971)" width="100%" xlink:href="#f"/></g><path d="m160.46452 77.769222c-6.28196 0-11.67382 1.64891-16.35142 5.07811-2.79464 2.04303-5.55982 5.77876-7.89504 9.08375-1.38617-5.77876-3.18876-13.26456-3.18876-13.26456l-17.79568.0215c-.98489 0-1.78029.80256-1.78029 1.79462v6.73419c0 1.00718.7954 1.79541 1.80258 1.79541l9.89427-.0223s2.43715 8.74139 3.9762 14.899138c-2.0725 3.7429-4.08606 6.96828-5.81539 10.30272-9.83536 18.9852-14.32987 32.0969-14.32987 46.43472 0 17.16112 7.53755 28.2879 18.76625 28.2879 13.00977 0 20.76547-11.65944 20.76547-31.8413 0-.38695-.0294-1.70704-.0653-2.47377 3.12266 1.56133 7.46432 2.85991 11.20719 2.85991 14.42466 0 26.35474-9.53598 28.87871-22.67714 1.04302-5.4141 1.46654-10.33934 1.46654-17.01541 0-7.14344-.76593-13.34498-2.23964-18.423088-4.02-13.70883-13.95724-21.57441-27.29585-21.57441zm-32.71635 101.193598c-5.52319 0-8.41256-9.23025-8.41256-18.33551 0-11.56468 3.33445-24.36984 13.40308-43.79294 2.94752 13.49864 5.40694 30.1924 5.40694 40.23954 0 6.58849-1.00002 21.88891-10.39746 21.88891zm50.60756-46.14251c-1.58366 8.26686-9.59489 14.6149-19.04333 14.6149-3.96183 0-8.04077-1.37184-11.60847-2.56851-1.47377-12.68812-4.76442-28.23695-7.71988-40.36375 1.89014-3.37824 3.25403-5.852008 6.54468-9.806698 4.76442-5.77159 9.47792-6.90218 13.93579-6.90218 10.92293 0 15.45403 8.01844 17.35057 14.468398.83206 2.84559 1.82409 7.82895 1.82409 15.50504 0 6.04946-.36387 10.28122-1.28345 15.0528z" fill="#e34d59" stroke-width=".796192"/></svg>