<svg enable-background="new 0 0 612 792" height="375" viewBox="0 0 375.00001 375" width="375" xmlns="http://www.w3.org/2000/svg" xmlns:xlink="http://www.w3.org/1999/xlink"><linearGradient id="a" gradientUnits="userSpaceOnUse" x1="1197.31718" x2="1265.62181" y1="940.0133" y2="1117.35943"><stop offset="0" stop-color="#637ddf"/><stop offset=".23168644" stop-color="#649afa"/><stop offset="1" stop-color="#719efa"/></linearGradient><linearGradient id="b" gradientUnits="userSpaceOnUse" x1="271.247019" x2="360.737349" y1="-703.73994" y2="-548.96296"><stop offset="0" stop-color="#699ad7"/><stop offset=".24345198" stop-color="#7eb1dd"/><stop offset="1" stop-color="#7ebae4"/></linearGradient><linearGradient id="c" gradientUnits="userSpaceOnUse" x1="280.49655" x2="368.39886" y1="-709.00487" y2="-553.62651"><stop offset="0" stop-color="#415e9a"/><stop offset=".23168644" stop-color="#4a6baf"/><stop offset="1" stop-color="#5277c3"/></linearGradient><g transform="matrix(.45947810497 0 0 .45947810497 -44.28451453831 462.34633208866)"><g fill-rule="evenodd"><path d="m309.40365-710.2521 122.19683 211.6751-56.15706.5268-32.6236-56.8692-32.85645 56.5653-27.90237-.011-14.29086-24.6896 46.81047-80.4902-33.22946-57.8256z" fill="#5277c3"/><path d="m353.50926-797.4433-122.21756 211.6631-28.53477-48.37 32.93839-56.6875-65.41521-.1719-13.9414-24.1698 14.23637-24.721 93.11177.2939 33.46371-57.6903z" fill="#7ebae4"/><path d="m362.88537-628.243 244.41439.012-27.62229 48.8968-65.56199-.1817 32.55876 56.7371-13.96098 24.1585-28.52722.032-46.3013-80.7841-66.69317-.1353z" fill="#7ebae4"/><path d="m505.14318-720.9886-122.19683-211.6751 56.15706-.5268 32.6236 56.8692 32.85645-56.5653 27.90237.011 14.29086 24.6896-46.81047 80.4902 33.22946 57.8256z" fill="#7ebae4"/><path d="m309.40365-710.2521 122.19683 211.6751-56.15706.5268-32.6236-56.8692-32.85645 56.5653-27.90237-.011-14.29086-24.6896 46.81047-80.4902-33.22946-57.8256z" fill="#5277c3"/><path d="m451.3364-803.53264-244.4144-.012 27.62229-48.89685 65.56199.18175-32.55875-56.73717 13.96097-24.15851 28.52722-.0315 46.3013 80.78414 66.69317.13524z" fill="#5277c3"/><path d="m460.87178-633.8425 122.21757-211.66304 28.53477 48.37003-32.93839 56.68751 65.4152.1718 13.9414 24.1698-14.23636 24.7211-93.11177-.294-33.46371 57.6904z" fill="#5277c3"/></g><g display="none" transform="translate(72.039038 -1799.4476)"><path d="m460.60629 594.72881-250.86446-.00001-125.432214-217.255 125.432234-217.25498 250.86446.00001 125.43222 217.255z" display="inline" fill="#4e4d52" opacity=".236"/><path d="m385.59154 773.06721h-100.83495l-50.41747-87.32564 50.41748-87.32563 100.83495.00001 50.41748 87.32563z" display="inline" fill="#4e4d52" transform="translate(0 -308.26772)"/><path d="m1216.5591 938.53395 123.0545 228.14035-42.6807-1.2616-43.4823-79.7725-39.6506 80.3267-32.6875-19.7984 53.4737-100.2848-37.1157-73.88955z" fill="url(#a)" fill-rule="evenodd" transform="translate(0 -308.26772)"/><path id="d" d="m-34.74221 446.17056h48.834862v226.22897h-48.834862z" display="inline" fill="#c53a3a" opacity=".415" transform="matrix(.8660254 -.5 .5 .8660254 0 0)"/><path d="m251.98568 878.63831-14.02447 24.29109h-28.04894l-14.02447-24.29109 14.02447-24.2911h28.04894z" display="inline" fill-rule="evenodd" opacity=".509" transform="translate(0 -308.26772)"/><use height="100%" transform="matrix(.5 .8660254 -.8660254 .5 558.026363 12.372987)" width="100%" xlink:href="#d"/><path d="m545.71014 467.07007h5.394748v115.12564h-5.394748z" display="inline" fill-opacity=".650794" fill-rule="evenodd" transform="matrix(.8660254 .5 -.5 .8660254 -.000001 -308.267717)"/></g></g><g transform="matrix(.45947810497 0 0 .45947810497 -44.28451453831 462.34633208866)"><path id="e" d="m309.54892-710.38827 122.19683 211.67512-56.15706.5268-32.6236-56.8692-32.85645 56.5653-27.90237-.011-14.29086-24.6896 46.81047-80.4901-33.22946-57.8257z" fill="url(#b)" fill-rule="evenodd"/><use height="100%" transform="matrix(.5 .8660254 -.8660254 .5 -416.334159 -710.462564)" width="100%" xlink:href="#e"/><use height="100%" transform="matrix(.5 -.8660254 .8660254 .5 823.470405 -5.10774)" width="100%" xlink:href="#e"/><use height="100%" transform="matrix(-1 0 0 -1 814.83736 -1431.513)" width="100%" xlink:href="#e"/><path id="f" d="m309.54892-710.38827 122.19683 211.67512-56.15706.5268-32.6236-56.8692-32.85645 56.5653-27.90237-.011-14.29086-24.6896 46.81047-80.4901-33.22946-57.8256z" fill="url(#c)" fill-rule="evenodd"/><use height="100%" transform="matrix(-.5 .8660254 -.8660254 -.5 -9.137814 -1426.891401)" width="100%" xlink:href="#f"/><use height="100%" transform="matrix(-.5 -.8660254 .8660254 -.5 1230.893908 -721.082971)" width="100%" xlink:href="#f"/></g><path d="m298.30274 153.4969c-11.30406 0-21.00643 2.96714-29.42353 9.13779-5.0288 3.67633-10.00459 10.39859-14.2067 16.34574-2.49434-10.39858-5.73801-23.86888-5.73801-23.86888l-32.0224.0387c-1.77226 0-3.20353 1.44417-3.20353 3.22933v12.11782c0 1.81237 1.43127 3.23075 3.24365 3.23075l17.80421-.0402s4.38552 15.72968 7.15496 26.81023c-3.72934 6.73514-7.35264 12.53904-10.46448 18.5392-17.69822 34.16288-25.78585 57.75669-25.78585 83.55685 0 30.88054 13.56342 50.9026 33.76889 50.9026 23.41039 0 37.36637-20.98055 37.36637-57.29676 0-.6963-.0529-3.07173-.11746-4.45142 5.61907 2.80953 13.43165 5.14627 20.16675 5.14627 25.95641 0 47.42397-17.15951 51.96573-40.80633 1.87686-9.7424 2.63896-18.60511 2.63896-30.61835 0-12.85424-1.37825-24.01359-4.03013-33.15138-7.23378-24.66833-25.11532-38.82203-49.11743-38.82203zm-58.87136 182.0926c-9.93869 0-15.13797-16.60936-15.13797-32.99379 0-20.81004 6.00017-43.85226 24.11815-78.80311 5.3039 24.29009 9.7295 54.32965 9.7295 72.40895 0 11.85564-1.79947 39.38795-18.70968 39.38795zm91.06565-83.03103c-2.84971 14.87578-17.2655 26.29874-34.26747 26.29874-7.1291 0-14.46895-2.46855-20.88883-4.62189-2.65197-22.83162-8.57332-50.81092-13.89153-72.63247 3.40122-6.07896 5.85547-10.53038 11.77682-17.64664 8.57332-10.38568 17.05502-12.42012 25.07672-12.42012 19.65524 0 27.80872 14.42878 31.22145 26.03513 1.49725 5.12049 3.28235 14.0878 3.28235 27.90051 0 10.8857-.65476 18.50053-2.30951 27.08674z" fill="#e34d59" stroke-width="1.432706"/></svg>